<mxfile host="app.diagrams.net" modified="2022-12-02T04:00:08.055Z" agent="5.0 (Windows NT 10.0; Win64; x64) AppleWebKit/537.36 (KHTML, like Gecko) Chrome/107.0.0.0 Safari/537.36" etag="vkGP6BuKiBHPfysdmJLV" version="20.4.2" type="github">
  <diagram id="prtHgNgQTEPvFCAcTncT" name="Page-1">
    <mxGraphModel dx="1038" dy="571" grid="1" gridSize="10" guides="1" tooltips="1" connect="1" arrows="1" fold="1" page="1" pageScale="1" pageWidth="827" pageHeight="1169" math="0" shadow="0">
      <root>
        <mxCell id="0" />
        <mxCell id="1" parent="0" />
        <mxCell id="GaDma3-Cxb_6lGRc8AcJ-10" value="" style="rounded=0;whiteSpace=wrap;html=1;fillColor=#d5e8d4;strokeColor=#82b366;" vertex="1" parent="1">
          <mxGeometry x="175" y="465" width="130" height="85" as="geometry" />
        </mxCell>
        <mxCell id="dNxyNK7c78bLwvsdeMH5-11" value="Shark Spotting Website" style="swimlane;html=1;startSize=20;horizontal=1;containerType=tree;glass=0;" parent="1" vertex="1">
          <mxGeometry x="160" y="40" width="520" height="680" as="geometry" />
        </mxCell>
        <mxCell id="GaDma3-Cxb_6lGRc8AcJ-15" value="" style="rounded=0;whiteSpace=wrap;html=1;fillColor=#f8cecc;strokeColor=#b85450;" vertex="1" parent="dNxyNK7c78bLwvsdeMH5-11">
          <mxGeometry x="235" y="260" width="125" height="80" as="geometry" />
        </mxCell>
        <mxCell id="GaDma3-Cxb_6lGRc8AcJ-14" value="" style="rounded=0;whiteSpace=wrap;html=1;fillColor=#d5e8d4;strokeColor=#82b366;" vertex="1" parent="dNxyNK7c78bLwvsdeMH5-11">
          <mxGeometry x="212.5" y="350" width="137.5" height="80" as="geometry" />
        </mxCell>
        <mxCell id="GaDma3-Cxb_6lGRc8AcJ-13" value="" style="rounded=0;whiteSpace=wrap;html=1;fillColor=#d5e8d4;strokeColor=#82b366;" vertex="1" parent="dNxyNK7c78bLwvsdeMH5-11">
          <mxGeometry x="100" y="270" width="120" height="80" as="geometry" />
        </mxCell>
        <mxCell id="GaDma3-Cxb_6lGRc8AcJ-12" value="" style="rounded=0;whiteSpace=wrap;html=1;fillColor=#d5e8d4;strokeColor=#82b366;" vertex="1" parent="dNxyNK7c78bLwvsdeMH5-11">
          <mxGeometry x="230" y="567.5" width="120" height="85" as="geometry" />
        </mxCell>
        <mxCell id="GaDma3-Cxb_6lGRc8AcJ-11" value="" style="rounded=0;whiteSpace=wrap;html=1;fillColor=#d5e8d4;strokeColor=#82b366;" vertex="1" parent="dNxyNK7c78bLwvsdeMH5-11">
          <mxGeometry x="200" y="460" width="120" height="85" as="geometry" />
        </mxCell>
        <mxCell id="GaDma3-Cxb_6lGRc8AcJ-9" value="" style="rounded=0;whiteSpace=wrap;html=1;fillColor=#f8cecc;strokeColor=#b85450;" vertex="1" parent="dNxyNK7c78bLwvsdeMH5-11">
          <mxGeometry x="65" y="545" width="130" height="90" as="geometry" />
        </mxCell>
        <mxCell id="GaDma3-Cxb_6lGRc8AcJ-8" value="" style="rounded=0;whiteSpace=wrap;html=1;fillColor=#f8cecc;strokeColor=#b85450;" vertex="1" parent="dNxyNK7c78bLwvsdeMH5-11">
          <mxGeometry x="370" y="250" width="130" height="90" as="geometry" />
        </mxCell>
        <mxCell id="GaDma3-Cxb_6lGRc8AcJ-6" value="" style="rounded=0;whiteSpace=wrap;html=1;fillColor=#fff2cc;strokeColor=#d6b656;" vertex="1" parent="dNxyNK7c78bLwvsdeMH5-11">
          <mxGeometry x="340" y="465" width="120" height="80" as="geometry" />
        </mxCell>
        <mxCell id="GaDma3-Cxb_6lGRc8AcJ-5" value="" style="rounded=0;whiteSpace=wrap;html=1;fillColor=#fff2cc;strokeColor=#d6b656;" vertex="1" parent="dNxyNK7c78bLwvsdeMH5-11">
          <mxGeometry x="220" y="180" width="120" height="80" as="geometry" />
        </mxCell>
        <mxCell id="GaDma3-Cxb_6lGRc8AcJ-3" value="" style="rounded=0;whiteSpace=wrap;html=1;fillColor=#dae8fc;strokeColor=#6c8ebf;" vertex="1" parent="dNxyNK7c78bLwvsdeMH5-11">
          <mxGeometry x="60" y="160" width="140" height="80" as="geometry" />
        </mxCell>
        <mxCell id="GaDma3-Cxb_6lGRc8AcJ-4" value="" style="rounded=0;whiteSpace=wrap;html=1;fillColor=#dae8fc;strokeColor=#6c8ebf;" vertex="1" parent="dNxyNK7c78bLwvsdeMH5-11">
          <mxGeometry x="200" y="60" width="150" height="80" as="geometry" />
        </mxCell>
        <mxCell id="GaDma3-Cxb_6lGRc8AcJ-2" value="" style="rounded=0;whiteSpace=wrap;html=1;fillColor=#dae8fc;strokeColor=#6c8ebf;" vertex="1" parent="dNxyNK7c78bLwvsdeMH5-11">
          <mxGeometry x="15" y="30" width="130" height="80" as="geometry" />
        </mxCell>
        <mxCell id="qgqeaup8MHFDbKRRuk7_-4" value="Find individual team member info" style="ellipse;whiteSpace=wrap;html=1;" parent="dNxyNK7c78bLwvsdeMH5-11" vertex="1">
          <mxGeometry x="200" y="60" width="150" height="80" as="geometry" />
        </mxCell>
        <mxCell id="qgqeaup8MHFDbKRRuk7_-6" value="See news about the team" style="ellipse;whiteSpace=wrap;html=1;" parent="dNxyNK7c78bLwvsdeMH5-11" vertex="1">
          <mxGeometry x="60" y="160" width="140" height="80" as="geometry" />
        </mxCell>
        <mxCell id="qgqeaup8MHFDbKRRuk7_-12" value="Add files" style="ellipse;whiteSpace=wrap;html=1;" parent="dNxyNK7c78bLwvsdeMH5-11" vertex="1">
          <mxGeometry x="360" y="80" width="140" height="80" as="geometry" />
        </mxCell>
        <mxCell id="qgqeaup8MHFDbKRRuk7_-17" value="Create user account" style="ellipse;whiteSpace=wrap;html=1;" parent="dNxyNK7c78bLwvsdeMH5-11" vertex="1">
          <mxGeometry x="200" y="465" width="120" height="80" as="geometry" />
        </mxCell>
        <mxCell id="qgqeaup8MHFDbKRRuk7_-19" value="Find user passwords by username" style="ellipse;whiteSpace=wrap;html=1;" parent="dNxyNK7c78bLwvsdeMH5-11" vertex="1">
          <mxGeometry x="212.5" y="350" width="135" height="80" as="geometry" />
        </mxCell>
        <mxCell id="qgqeaup8MHFDbKRRuk7_-21" value="View file list" style="ellipse;whiteSpace=wrap;html=1;" parent="dNxyNK7c78bLwvsdeMH5-11" vertex="1">
          <mxGeometry x="222.5" y="180" width="120" height="80" as="geometry" />
        </mxCell>
        <mxCell id="qgqeaup8MHFDbKRRuk7_-23" value="Update news page" style="ellipse;whiteSpace=wrap;html=1;" parent="dNxyNK7c78bLwvsdeMH5-11" vertex="1">
          <mxGeometry x="70" y="550" width="120" height="80" as="geometry" />
        </mxCell>
        <mxCell id="qgqeaup8MHFDbKRRuk7_-26" value="Edit personal bio" style="ellipse;whiteSpace=wrap;html=1;" parent="dNxyNK7c78bLwvsdeMH5-11" vertex="1">
          <mxGeometry x="370" y="250" width="130" height="85" as="geometry" />
        </mxCell>
        <mxCell id="qgqeaup8MHFDbKRRuk7_-30" value="Find individual team info" style="ellipse;whiteSpace=wrap;html=1;" parent="dNxyNK7c78bLwvsdeMH5-11" vertex="1">
          <mxGeometry x="20" y="30" width="120" height="80" as="geometry" />
        </mxCell>
        <mxCell id="qgqeaup8MHFDbKRRuk7_-32" value="Login" style="ellipse;whiteSpace=wrap;html=1;" parent="dNxyNK7c78bLwvsdeMH5-11" vertex="1">
          <mxGeometry x="340" y="465" width="120" height="80" as="geometry" />
        </mxCell>
        <mxCell id="qgqeaup8MHFDbKRRuk7_-36" value="&amp;lt;&amp;lt;extend&amp;gt;&amp;gt;" style="endArrow=open;endSize=12;dashed=1;html=1;rounded=0;entryX=1;entryY=0;entryDx=0;entryDy=0;exitX=0.257;exitY=0.963;exitDx=0;exitDy=0;exitPerimeter=0;" parent="dNxyNK7c78bLwvsdeMH5-11" source="qgqeaup8MHFDbKRRuk7_-12" target="qgqeaup8MHFDbKRRuk7_-21" edge="1">
          <mxGeometry width="160" relative="1" as="geometry">
            <mxPoint x="310" y="170" as="sourcePoint" />
            <mxPoint x="480" y="190" as="targetPoint" />
            <Array as="points">
              <mxPoint x="360" y="170" />
              <mxPoint x="380" y="160" />
            </Array>
          </mxGeometry>
        </mxCell>
        <mxCell id="qgqeaup8MHFDbKRRuk7_-37" value="Delete user account" style="ellipse;whiteSpace=wrap;html=1;" parent="dNxyNK7c78bLwvsdeMH5-11" vertex="1">
          <mxGeometry x="230" y="570" width="120" height="80" as="geometry" />
        </mxCell>
        <mxCell id="qgqeaup8MHFDbKRRuk7_-38" value="Delete files" style="ellipse;whiteSpace=wrap;html=1;" parent="dNxyNK7c78bLwvsdeMH5-11" vertex="1">
          <mxGeometry x="102.5" y="270" width="120" height="80" as="geometry" />
        </mxCell>
        <mxCell id="qgqeaup8MHFDbKRRuk7_-39" value="Edit file descriptions" style="ellipse;whiteSpace=wrap;html=1;" parent="dNxyNK7c78bLwvsdeMH5-11" vertex="1">
          <mxGeometry x="240" y="260" width="120" height="80" as="geometry" />
        </mxCell>
        <mxCell id="qgqeaup8MHFDbKRRuk7_-43" value="&amp;lt;&amp;lt;extend&amp;gt;&amp;gt;" style="endArrow=open;endSize=12;dashed=1;html=1;rounded=0;entryX=0;entryY=1;entryDx=0;entryDy=0;" parent="dNxyNK7c78bLwvsdeMH5-11" source="qgqeaup8MHFDbKRRuk7_-38" target="qgqeaup8MHFDbKRRuk7_-21" edge="1">
          <mxGeometry width="160" relative="1" as="geometry">
            <mxPoint x="82.5" y="270" as="sourcePoint" />
            <mxPoint x="242.5" y="270" as="targetPoint" />
          </mxGeometry>
        </mxCell>
        <mxCell id="qgqeaup8MHFDbKRRuk7_-44" value="&amp;lt;&amp;lt;extend&amp;gt;&amp;gt;" style="endArrow=open;endSize=12;dashed=1;html=1;rounded=0;exitX=1;exitY=0;exitDx=0;exitDy=0;entryX=1;entryY=0.5;entryDx=0;entryDy=0;" parent="dNxyNK7c78bLwvsdeMH5-11" source="qgqeaup8MHFDbKRRuk7_-39" target="qgqeaup8MHFDbKRRuk7_-21" edge="1">
          <mxGeometry width="160" relative="1" as="geometry">
            <mxPoint x="350" y="230" as="sourcePoint" />
            <mxPoint x="510" y="230" as="targetPoint" />
          </mxGeometry>
        </mxCell>
        <mxCell id="qgqeaup8MHFDbKRRuk7_-1" value="Visitor" style="shape=umlActor;verticalLabelPosition=bottom;verticalAlign=top;html=1;outlineConnect=0;" parent="1" vertex="1">
          <mxGeometry x="60" y="170" width="40" height="80" as="geometry" />
        </mxCell>
        <mxCell id="qgqeaup8MHFDbKRRuk7_-2" value="Admin" style="shape=umlActor;verticalLabelPosition=bottom;verticalAlign=top;html=1;outlineConnect=0;" parent="1" vertex="1">
          <mxGeometry x="70" y="340" width="40" height="80" as="geometry" />
        </mxCell>
        <mxCell id="qgqeaup8MHFDbKRRuk7_-5" value="" style="endArrow=none;html=1;rounded=0;entryX=0;entryY=0.5;entryDx=0;entryDy=0;" parent="1" target="qgqeaup8MHFDbKRRuk7_-4" edge="1">
          <mxGeometry width="50" height="50" relative="1" as="geometry">
            <mxPoint x="100" y="210" as="sourcePoint" />
            <mxPoint x="320" y="185" as="targetPoint" />
          </mxGeometry>
        </mxCell>
        <mxCell id="qgqeaup8MHFDbKRRuk7_-7" value="" style="endArrow=none;html=1;rounded=0;entryX=0;entryY=0.5;entryDx=0;entryDy=0;" parent="1" target="qgqeaup8MHFDbKRRuk7_-6" edge="1">
          <mxGeometry width="50" height="50" relative="1" as="geometry">
            <mxPoint x="110" y="230" as="sourcePoint" />
            <mxPoint x="210" y="280" as="targetPoint" />
          </mxGeometry>
        </mxCell>
        <mxCell id="qgqeaup8MHFDbKRRuk7_-14" value="Team member" style="shape=umlActor;verticalLabelPosition=bottom;verticalAlign=top;html=1;outlineConnect=0;" parent="1" vertex="1">
          <mxGeometry x="720" y="160" width="40" height="70" as="geometry" />
        </mxCell>
        <mxCell id="qgqeaup8MHFDbKRRuk7_-20" value="" style="endArrow=none;html=1;rounded=0;entryX=0;entryY=0.5;entryDx=0;entryDy=0;" parent="1" source="qgqeaup8MHFDbKRRuk7_-2" target="qgqeaup8MHFDbKRRuk7_-19" edge="1">
          <mxGeometry width="50" height="50" relative="1" as="geometry">
            <mxPoint x="210" y="500" as="sourcePoint" />
            <mxPoint x="260" y="450" as="targetPoint" />
            <Array as="points" />
          </mxGeometry>
        </mxCell>
        <mxCell id="qgqeaup8MHFDbKRRuk7_-22" value="" style="endArrow=none;html=1;rounded=0;" parent="1" source="qgqeaup8MHFDbKRRuk7_-21" target="qgqeaup8MHFDbKRRuk7_-14" edge="1">
          <mxGeometry width="50" height="50" relative="1" as="geometry">
            <mxPoint x="610" y="230" as="sourcePoint" />
            <mxPoint x="660" y="180" as="targetPoint" />
          </mxGeometry>
        </mxCell>
        <mxCell id="qgqeaup8MHFDbKRRuk7_-24" value="" style="endArrow=none;html=1;rounded=0;entryX=0.033;entryY=0.731;entryDx=0;entryDy=0;entryPerimeter=0;" parent="1" source="qgqeaup8MHFDbKRRuk7_-2" target="qgqeaup8MHFDbKRRuk7_-21" edge="1">
          <mxGeometry width="50" height="50" relative="1" as="geometry">
            <mxPoint x="400" y="340" as="sourcePoint" />
            <mxPoint x="450" y="290" as="targetPoint" />
          </mxGeometry>
        </mxCell>
        <mxCell id="qgqeaup8MHFDbKRRuk7_-25" value="" style="endArrow=none;html=1;rounded=0;entryX=0;entryY=0;entryDx=0;entryDy=0;" parent="1" source="qgqeaup8MHFDbKRRuk7_-2" target="qgqeaup8MHFDbKRRuk7_-23" edge="1">
          <mxGeometry width="50" height="50" relative="1" as="geometry">
            <mxPoint x="170" y="410" as="sourcePoint" />
            <mxPoint x="220" y="360" as="targetPoint" />
          </mxGeometry>
        </mxCell>
        <mxCell id="qgqeaup8MHFDbKRRuk7_-29" value="" style="endArrow=none;html=1;rounded=0;" parent="1" source="qgqeaup8MHFDbKRRuk7_-26" target="qgqeaup8MHFDbKRRuk7_-14" edge="1">
          <mxGeometry width="50" height="50" relative="1" as="geometry">
            <mxPoint x="680" y="290" as="sourcePoint" />
            <mxPoint x="730" y="240" as="targetPoint" />
          </mxGeometry>
        </mxCell>
        <mxCell id="qgqeaup8MHFDbKRRuk7_-31" value="" style="endArrow=none;html=1;rounded=0;entryX=0.008;entryY=0.725;entryDx=0;entryDy=0;entryPerimeter=0;" parent="1" source="qgqeaup8MHFDbKRRuk7_-1" target="qgqeaup8MHFDbKRRuk7_-30" edge="1">
          <mxGeometry width="50" height="50" relative="1" as="geometry">
            <mxPoint x="100" y="190" as="sourcePoint" />
            <mxPoint x="150" y="140" as="targetPoint" />
          </mxGeometry>
        </mxCell>
        <mxCell id="qgqeaup8MHFDbKRRuk7_-33" value="" style="endArrow=none;html=1;rounded=0;exitX=1;exitY=0;exitDx=0;exitDy=0;" parent="1" source="qgqeaup8MHFDbKRRuk7_-32" target="qgqeaup8MHFDbKRRuk7_-14" edge="1">
          <mxGeometry width="50" height="50" relative="1" as="geometry">
            <mxPoint x="620" y="480" as="sourcePoint" />
            <mxPoint x="670" y="430" as="targetPoint" />
          </mxGeometry>
        </mxCell>
        <mxCell id="qgqeaup8MHFDbKRRuk7_-34" value="" style="endArrow=none;html=1;rounded=0;" parent="1" source="qgqeaup8MHFDbKRRuk7_-2" target="qgqeaup8MHFDbKRRuk7_-32" edge="1">
          <mxGeometry width="50" height="50" relative="1" as="geometry">
            <mxPoint x="400" y="510" as="sourcePoint" />
            <mxPoint x="450" y="460" as="targetPoint" />
          </mxGeometry>
        </mxCell>
        <mxCell id="qgqeaup8MHFDbKRRuk7_-41" value="Manage users" style="ellipse;whiteSpace=wrap;html=1;" parent="1" vertex="1">
          <mxGeometry x="180" y="465" width="120" height="80" as="geometry" />
        </mxCell>
        <mxCell id="qgqeaup8MHFDbKRRuk7_-42" value="" style="endArrow=none;html=1;rounded=0;entryX=0.058;entryY=0.238;entryDx=0;entryDy=0;entryPerimeter=0;" parent="1" source="qgqeaup8MHFDbKRRuk7_-2" target="qgqeaup8MHFDbKRRuk7_-41" edge="1">
          <mxGeometry width="50" height="50" relative="1" as="geometry">
            <mxPoint x="110" y="396.2262183997916" as="sourcePoint" />
            <mxPoint x="396.96000000000004" y="629.04" as="targetPoint" />
          </mxGeometry>
        </mxCell>
        <mxCell id="qgqeaup8MHFDbKRRuk7_-45" value="&amp;lt;&amp;lt;extend&amp;gt;&amp;gt;" style="endArrow=open;endSize=12;dashed=1;html=1;rounded=0;entryX=1;entryY=1;entryDx=0;entryDy=0;" parent="1" source="qgqeaup8MHFDbKRRuk7_-37" target="qgqeaup8MHFDbKRRuk7_-41" edge="1">
          <mxGeometry width="160" relative="1" as="geometry">
            <mxPoint x="270" y="560" as="sourcePoint" />
            <mxPoint x="430" y="560" as="targetPoint" />
          </mxGeometry>
        </mxCell>
        <mxCell id="qgqeaup8MHFDbKRRuk7_-47" value="&amp;lt;&amp;lt;extend&amp;gt;&amp;gt;" style="endArrow=open;endSize=12;dashed=1;html=1;rounded=0;exitX=-0.025;exitY=0.425;exitDx=0;exitDy=0;exitPerimeter=0;entryX=1;entryY=0.5;entryDx=0;entryDy=0;" parent="1" source="qgqeaup8MHFDbKRRuk7_-17" target="qgqeaup8MHFDbKRRuk7_-41" edge="1">
          <mxGeometry width="160" relative="1" as="geometry">
            <mxPoint x="310" y="520" as="sourcePoint" />
            <mxPoint x="470" y="520" as="targetPoint" />
          </mxGeometry>
        </mxCell>
        <mxCell id="GaDma3-Cxb_6lGRc8AcJ-28" value="Legend" style="swimlane;" vertex="1" parent="1">
          <mxGeometry x="684" y="330" width="143" height="150" as="geometry" />
        </mxCell>
        <mxCell id="GaDma3-Cxb_6lGRc8AcJ-29" value="                    - Sprint #1" style="text;strokeColor=none;fillColor=none;align=left;verticalAlign=middle;spacingLeft=4;spacingRight=4;overflow=hidden;points=[[0,0.5],[1,0.5]];portConstraint=eastwest;rotatable=0;" vertex="1" parent="GaDma3-Cxb_6lGRc8AcJ-28">
          <mxGeometry x="-7" y="25" width="140" height="30" as="geometry" />
        </mxCell>
        <mxCell id="GaDma3-Cxb_6lGRc8AcJ-22" value="                    - Sprint #2" style="text;strokeColor=none;fillColor=none;align=left;verticalAlign=middle;spacingLeft=4;spacingRight=4;overflow=hidden;points=[[0,0.5],[1,0.5]];portConstraint=eastwest;rotatable=0;" vertex="1" parent="GaDma3-Cxb_6lGRc8AcJ-28">
          <mxGeometry x="-7" y="55" width="140" height="30" as="geometry" />
        </mxCell>
        <mxCell id="GaDma3-Cxb_6lGRc8AcJ-23" value="                    - Sprint #3" style="text;strokeColor=none;fillColor=none;align=left;verticalAlign=middle;spacingLeft=4;spacingRight=4;overflow=hidden;points=[[0,0.5],[1,0.5]];portConstraint=eastwest;rotatable=0;" vertex="1" parent="GaDma3-Cxb_6lGRc8AcJ-28">
          <mxGeometry x="-7" y="85" width="140" height="30" as="geometry" />
        </mxCell>
        <mxCell id="GaDma3-Cxb_6lGRc8AcJ-24" value="                    - Incomplete" style="text;strokeColor=none;fillColor=none;align=left;verticalAlign=middle;spacingLeft=4;spacingRight=4;overflow=hidden;points=[[0,0.5],[1,0.5]];portConstraint=eastwest;rotatable=0;" vertex="1" parent="GaDma3-Cxb_6lGRc8AcJ-28">
          <mxGeometry x="-7" y="115" width="147" height="30" as="geometry" />
        </mxCell>
        <mxCell id="GaDma3-Cxb_6lGRc8AcJ-25" value="" style="rounded=0;whiteSpace=wrap;html=1;fillColor=#dae8fc;strokeColor=#6c8ebf;" vertex="1" parent="GaDma3-Cxb_6lGRc8AcJ-28">
          <mxGeometry x="13" y="35" width="40" height="10" as="geometry" />
        </mxCell>
        <mxCell id="GaDma3-Cxb_6lGRc8AcJ-31" value="" style="rounded=0;whiteSpace=wrap;html=1;fillColor=#fff2cc;strokeColor=#d6b656;" vertex="1" parent="GaDma3-Cxb_6lGRc8AcJ-28">
          <mxGeometry x="13" y="65" width="40" height="10" as="geometry" />
        </mxCell>
        <mxCell id="GaDma3-Cxb_6lGRc8AcJ-32" value="" style="rounded=0;whiteSpace=wrap;html=1;fillColor=#d5e8d4;strokeColor=#82b366;" vertex="1" parent="GaDma3-Cxb_6lGRc8AcJ-28">
          <mxGeometry x="13" y="95" width="40" height="10" as="geometry" />
        </mxCell>
        <mxCell id="GaDma3-Cxb_6lGRc8AcJ-33" value="" style="rounded=0;whiteSpace=wrap;html=1;fillColor=#f8cecc;strokeColor=#b85450;" vertex="1" parent="GaDma3-Cxb_6lGRc8AcJ-28">
          <mxGeometry x="13" y="125" width="40" height="10" as="geometry" />
        </mxCell>
      </root>
    </mxGraphModel>
  </diagram>
</mxfile>
